<svg width="30" height="30" viewBox="0 0 30 30" fill="none" xmlns="http://www.w3.org/2000/svg">
<path d="M29 15H29.5V14.5H29V15ZM15 28.5C7.54416 28.5 1.5 22.4558 1.5 15H0.5C0.5 23.0081 6.99187 29.5 15 29.5V28.5ZM28.5 15C28.5 22.4558 22.4558 28.5 15 28.5V29.5C23.0081 29.5 29.5 23.0081 29.5 15H28.5ZM15 0.5C6.99187 0.5 0.5 6.99187 0.5 15H1.5C1.5 7.54416 7.54416 1.5 15 1.5V0.5ZM15 1.5C18.7776 1.5 22.192 3.0509 24.6429 5.55198L25.3571 4.85208C22.7259 2.16697 19.0572 0.5 15 0.5V1.5ZM16 15.5H29V14.5H16V15.5Z" fill="black"/>
</svg>
